<?xml version="1.0" standalone="no"?><!DOCTYPE svg PUBLIC "-//W3C//DTD SVG 1.1//EN" "http://www.w3.org/Graphics/SVG/1.1/DTD/svg11.dtd"><svg t="1619231626979" class="icon" viewBox="0 0 1024 1024" version="1.1" xmlns="http://www.w3.org/2000/svg" p-id="2735" xmlns:xlink="http://www.w3.org/1999/xlink" width="200" height="200"><defs><style type="text/css"></style></defs><path d="M428.4 118.4l521.1 521.1c18.5 18.5 18.3 48.8-0.5 67.6L710.9 945.3c-18.8 18.8-49 19-67.6 0.5L121.6 424c-9.7-9.7-15.4-22.6-16-36.4L93.4 120.3c-0.8-17.2 13.5-31.4 30.7-30.6l268.1 12.8c13.7 0.6 26.6 6.3 36.2 15.9z" fill="#FFCC00" p-id="2736"></path><path d="M261.7 254.2m-47.6 0a47.6 47.6 0 1 0 95.2 0 47.6 47.6 0 1 0-95.2 0Z" fill="#FFFFFF" p-id="2737"></path><path d="M309.3 618.9c-1.8 0-3.7-0.7-5.1-2.1L96.6 409.1c-11-11-17.5-25.5-18.3-41L73.6 279c-0.2-3.9 2.8-7.3 6.8-7.5 4-0.3 7.3 2.8 7.5 6.8l4.7 89.1c0.6 12 5.6 23.2 14.1 31.7l207.7 207.7c2.8 2.8 2.8 7.3 0 10.1-1.4 1.3-3.3 2-5.1 2zM367.8 677.4c-1.8 0-3.7-0.7-5.1-2.1l-3.6-3.6c-2.8-2.8-2.8-7.3 0-10.1s7.3-2.8 10.1 0l3.6 3.6c2.8 2.8 2.8 7.3 0 10.1-1.4 1.4-3.2 2.1-5 2.1zM658.6 948.4c-14 0-28-5.3-38.7-16L385.1 697.7c-2.8-2.8-2.8-7.3 0-10.1s7.3-2.8 10.1 0L630 922.3c15.8 15.8 41.4 15.8 57.2 0l235.5-235.5c15.8-15.8 15.8-41.4 0-57.2L798.6 505.5c-2.8-2.8-2.8-7.3 0-10.1s7.3-2.8 10.1 0l124.1 124.1c21.3 21.3 21.3 56.1 0 77.4L697.3 932.4c-10.7 10.7-24.7 16-38.7 16zM752.3 456.2c-1.8 0-3.7-0.7-5.1-2.1l-2.2-2.2c-2.8-2.8-2.8-7.3 0-10.1s7.3-2.8 10.1 0l2.2 2.2c2.8 2.8 2.8 7.3 0 10.1-1.4 1.4-3.2 2.1-5 2.1zM725.6 429.5c-1.8 0-3.7-0.7-5.1-2.1L400 106.9c-8.4-8.4-19.7-13.4-31.6-14.1l-267-14.6c-6.1-0.4-12.1 1.9-16.5 6.3s-6.7 10.3-6.3 16.5l5.7 107.5c0.2 3.9-2.8 7.3-6.8 7.5-3.9 0.1-7.3-2.8-7.5-6.8l-5.7-107.5c-0.5-10.2 3.3-20.1 10.5-27.3 7.2-7.2 17.1-11.1 27.4-10.5l267.1 14.6c15.4 0.8 30 7.3 40.9 18.3l320.5 320.5c2.8 2.8 2.8 7.3 0 10.1-1.4 1.4-3.3 2.1-5.1 2.1z" p-id="2738"></path><path d="M573.7 562.9l-77.2 77.2c-5.6 5.6-14.6 5.6-20.2 0s-5.6-14.6 0-20.2l77.2-77.2c5.6-5.6 14.6-5.6 20.2 0 5.6 5.5 5.6 14.6 0 20.2zM530.8 519.9l-77.2 77.2c-5.6 5.6-14.6 5.6-20.2 0s-5.6-14.6 0-20.2l77.2-77.2c5.6-5.6 14.6-5.6 20.2 0s5.6 14.7 0 20.2zM739.1 569.1L582.3 725.9c-5.6 5.6-14.6 5.6-20.2 0s-5.6-14.6 0-20.2l156.8-156.8c5.6-5.6 14.6-5.6 20.2 0s5.6 14.6 0 20.2z" fill="#FFFFFF" p-id="2739"></path></svg>